<svg id="Capa_1" enable-background="new 0 0 491.177 491.177" height="512" viewBox="0 0 491.177 491.177" width="512" xmlns="http://www.w3.org/2000/svg"><g><g><path d="m430.872 287.82c3.008-15.904 4.578-32.254 4.578-48.89v-150.903c0-4.616-3.268-8.586-7.798-9.474l-18.455-3.616c-48.404-9.483-94.297-28.959-134.747-57.185l-22.868-15.956c-3.304-2.305-7.692-2.317-11.008-.029l-24.417 16.85c-40.086 27.663-85.44 46.771-133.235 56.135l-19.398 3.8c-4.53.887-7.798 4.858-7.798 9.474v150.614c0 16.737 1.591 33.184 4.635 49.179l8.992 60.313 64.549 77.444c30.424 30.036 68.397 52.889 111.541 65.354l.645.187c43.139-12.53 81.091-35.446 111.479-65.54l60.389-65.707z" fill="#fbe88c"/></g><g><path d="m209.48 441.531-25.478-27.246c-32.318-34.56-52.98-78.215-59.171-124.919-3.791-28.597-7.198-56.707-7.198-65.35v-157.906c-11.396 3.455-22.979 6.344-34.711 8.642l-19.398 3.8c-4.53.887-7.798 4.858-7.798 9.474v150.614c0 16.737 1.591 33.184 4.635 49.179l8.992 60.313 64.549 77.444c30.424 30.036 68.397 52.889 111.541 65.354l.645.187c6.506-1.89 12.891-4.02 19.153-6.371-20.34-12.316-39.023-26.849-55.761-43.215z" fill="#fbe372"/></g><g><path d="m398.272 287.82c3.424-15.905 5.179-32.262 5.179-48.89v-132.51l-.406-.08c-53.104-10.403-102.53-31.379-146.908-62.345l-4.646-3.242c-3.31-2.31-7.707-2.321-11.03-.029l-6.164 4.254c-43.692 30.152-93.128 50.977-145.224 61.178l-1.349.264v132.221c0 16.729 1.775 33.183 5.24 49.179l31.693 92.416 58.491 45.342c19.02 13.764 40.138 24.563 62.876 32.047 22.563-7.525 43.522-18.322 62.401-32.047l73.172-63.277z" fill="#f8f7f8"/></g><path d="m210.614 442.609c-.374-.362-.761-.713-1.134-1.077l-25.478-27.246c-32.318-34.56-52.98-78.215-59.171-124.919-3.791-28.597-7.198-56.707-7.198-65.35v-124.576c-9.394 2.584-18.916 4.825-28.558 6.715l-1.349.264v132.221c0 16.729 1.775 33.183 5.24 49.179l31.693 92.416 58.491 45.342c8.726 6.315 17.9 11.998 27.464 17.031z" fill="#efedee"/><path d="m113.928 287.821h-107.55c-4.54 0-7.62 4.61-5.89 8.8l12.15 29.34c.64 1.56.64 3.31 0 4.87l-12.15 29.35c-1.73 4.19 1.35 8.8 5.89 8.8h99.246l13.134-79.25c-1.27-1.19-2.96-1.91-4.83-1.91z" fill="#f09ea2"/><g id="XMLID_185_"><g><path d="m118.758 289.731-55.07 52.04c-.81.77-1.46 1.66-1.93 2.65l9.343 21.68h39.862l10.045-21.68v-49.53c0-2.04-.87-3.88-2.25-5.16z" fill="#ec6e73"/></g></g><circle cx="245.088" cy="260.158" fill="#fdf5cb" r="108.178"/><path d="m183.438 260.158c0-51.758 36.351-95.018 84.914-105.662-7.494-1.643-15.276-2.516-23.264-2.516-59.745 0-108.178 48.433-108.178 108.178s48.433 108.178 108.178 108.178c7.987 0 15.77-.874 23.264-2.516-48.563-10.644-84.914-53.905-84.914-105.662z" fill="#fcf0b6"/><g><g><path d="m246.089 289.41c-.113 0-.226-.001-.34-.004-4.215-.088-8.187-1.994-10.979-5.152l-32.339-36.575c-2.265-2.562-2.025-6.475.537-8.741l13.197-11.668c2.562-2.265 6.475-2.025 8.741.537l21.491 24.307c.078.088.213.09.295.006l94.271-98.207c2.404-2.504 6.383-2.586 8.887-.182l12.574 12.07c2.504 2.404 2.586 6.383.182 8.887l-105.696 110.11c-2.832 2.949-6.742 4.612-10.821 4.612z" fill="#c5e97d"/></g></g><path d="m478.538 330.831c-.64-1.56-.64-3.31 0-4.87l12.15-29.34c1.73-4.19-1.35-8.8-5.89-8.8h-107.55c-1.97 0-3.76.81-5.04 2.11l10.256 79.05h47.834.38 54.12c4.54 0 7.62-4.61 5.89-8.8z" fill="#f09ea2"/><path d="m427.488 341.771-55.28-51.84c-1.27 1.28-2.04 3.03-2.04 4.96v49.53 25.72h47.96l11.29-25.72c-.47-.99-1.12-1.88-1.93-2.65z" fill="#ec6e73"/><path d="m430.298 416.631c0 4.94-4 8.95-8.94 8.95h-351.54c-4.94 0-8.94-4.01-8.94-8.95v-68.35c0-1.35.31-2.67.88-3.86h3.12 364.54c.57 1.19.88 2.51.88 3.86z" fill="#ee878a"/></g></svg>